<svg width="471" height="116" viewBox="0 0 471 116" fill="none" xmlns="http://www.w3.org/2000/svg">
<path d="M2.3 33H24.1V26.05H10.35V2.3H2.3V33ZM41.5406 25.15C41.0906 26.7 39.8406 27.4 38.2406 27.4C35.9906 27.4 34.5906 25.95 34.3406 23.25H48.8906V21.3C48.8906 14.6 44.9906 10 38.0906 10C31.5906 10 26.7906 14.8 26.7906 21.75C26.7906 28.75 31.3406 33.5 38.2406 33.5C44.0906 33.5 47.9906 30.35 48.7906 25.15H41.5406ZM38.0906 16.1C40.0406 16.1 41.1906 17.5 41.2906 19.35H34.4906C34.9906 17.25 36.2406 16.1 38.0906 16.1ZM54.0176 25.25C54.0176 30.95 57.0176 33.45 62.3176 33.45C64.0676 33.45 65.7676 33.15 66.6676 32.75V26.1C65.9676 26.4 65.0176 26.6 64.1676 26.6C62.6176 26.6 61.7676 25.85 61.7676 24.1V16.6H66.4676V10.5H61.7676V4.3H54.0176V10.5H50.7176V16.6H54.0176V25.25ZM69.7305 15.95H74.6805L77.3305 11.85C78.3805 10.25 79.2305 8.5 79.2305 6.7C79.2305 3.5 77.1305 1.8 74.6305 1.8C72.0305 1.8 70.0305 3.65 70.0305 6.2C70.0305 8.5 71.5805 9.9 73.3805 10.25L69.7305 15.95ZM79.5578 26.05C80.2578 30.9 84.4078 33.5 90.1578 33.5C95.6578 33.5 100.008 30.85 100.008 26.05C100.008 22.4 97.8078 20.25 93.7078 19.3L89.2578 18.25C88.2078 18.05 87.7078 17.7 87.7078 17C87.7078 16 88.6578 15.5 89.8078 15.5C91.6078 15.5 92.3078 16.35 92.5578 17.3H99.8078C99.1078 12.85 95.7578 10 89.6078 10C84.3078 10 80.0078 12.8 80.0078 17.6C80.0078 21.55 82.4578 23.35 86.2078 24.15L90.6078 25.05C91.7078 25.3 92.3578 25.6 92.3578 26.45C92.3578 27.5 91.3578 28 90.0578 28C88.6578 28 87.5578 27.3 87.2078 26.05H79.5578ZM132.28 10.5H127.28L123.88 22.7L120.33 10.5H112.53L119.78 33H126.43L129.63 21.6L132.83 33H139.48L146.73 10.5H139.23L135.63 22.7L132.28 10.5ZM170.857 21.75C170.857 14.8 166.207 10 159.357 10C152.557 10 147.857 14.8 147.857 21.75C147.857 28.7 152.557 33.5 159.357 33.5C166.207 33.5 170.857 28.7 170.857 21.75ZM163.157 21.75C163.157 24.85 161.807 27 159.357 27C156.957 27 155.607 24.85 155.607 21.75C155.607 18.65 156.957 16.45 159.357 16.45C161.807 16.45 163.157 18.65 163.157 21.75ZM189.511 10.4C189.161 10.2 188.361 10 187.361 10C185.111 10 183.361 11 182.261 12.5V10.5H174.411V33H182.261V19.8C182.661 18.2 184.111 17.25 186.261 17.25C187.511 17.25 188.561 17.45 189.511 17.95V10.4ZM208.022 33H217.022L208.222 19.85L216.772 10.5H207.322L201.022 17.7V0.499998H193.172V33H201.022V26.4L202.522 24.65L208.022 33ZM232.004 25.25C232.004 30.95 235.004 33.45 240.304 33.45C242.054 33.45 243.754 33.15 244.654 32.75V26.1C243.954 26.4 243.004 26.6 242.154 26.6C240.604 26.6 239.754 25.85 239.754 24.1V16.6H244.454V10.5H239.754V4.3H232.004V10.5H228.704V16.6H232.004V25.25ZM270.476 21.75C270.476 14.8 265.826 10 258.976 10C252.176 10 247.476 14.8 247.476 21.75C247.476 28.7 252.176 33.5 258.976 33.5C265.826 33.5 270.476 28.7 270.476 21.75ZM262.776 21.75C262.776 24.85 261.426 27 258.976 27C256.576 27 255.226 24.85 255.226 21.75C255.226 18.65 256.576 16.45 258.976 16.45C261.426 16.45 262.776 18.65 262.776 21.75ZM288.423 31.45C288.423 34.4 286.923 35.7 284.473 35.7C282.573 35.7 281.373 34.9 280.923 33.3H273.373C274.173 38.5 278.473 41.45 284.473 41.45C291.323 41.45 296.173 37.65 296.173 29.75V10.5H288.423V12.2C287.423 11 285.573 10 283.073 10C276.773 10 273.123 14.85 273.123 21C273.123 27.2 276.773 32.05 283.073 32.05C285.573 32.05 287.423 31 288.423 29.85V31.45ZM288.423 23.9C287.823 24.95 286.573 25.8 285.023 25.8C282.423 25.8 280.873 23.85 280.873 21C280.873 18.2 282.423 16.2 285.023 16.2C286.573 16.2 287.823 17.1 288.423 18.1V23.9ZM314.447 25.15C313.997 26.7 312.747 27.4 311.147 27.4C308.897 27.4 307.497 25.95 307.247 23.25H321.797V21.3C321.797 14.6 317.897 10 310.997 10C304.497 10 299.697 14.8 299.697 21.75C299.697 28.75 304.247 33.5 311.147 33.5C316.997 33.5 320.897 30.35 321.697 25.15H314.447ZM310.997 16.1C312.947 16.1 314.097 17.5 314.197 19.35H307.397C307.897 17.25 309.147 16.1 310.997 16.1ZM326.924 25.25C326.924 30.95 329.924 33.45 335.224 33.45C336.974 33.45 338.674 33.15 339.574 32.75V26.1C338.874 26.4 337.924 26.6 337.074 26.6C335.524 26.6 334.674 25.85 334.674 24.1V16.6H339.374V10.5H334.674V4.3H326.924V10.5H323.624V16.6H326.924V25.25ZM343.694 33H351.544V19.4C351.944 17.85 353.244 16.95 354.794 16.95C356.794 16.95 357.744 18.3 357.744 20.15V33H365.544V18.25C365.544 13.25 362.594 10 357.594 10C354.994 10 352.794 11.05 351.544 12.45V0.499998H343.694V33ZM383.671 25.15C383.221 26.7 381.971 27.4 380.371 27.4C378.121 27.4 376.721 25.95 376.471 23.25H391.021V21.3C391.021 14.6 387.121 10 380.221 10C373.721 10 368.921 14.8 368.921 21.75C368.921 28.75 373.471 33.5 380.371 33.5C386.221 33.5 390.121 30.35 390.921 25.15H383.671ZM380.221 16.1C382.171 16.1 383.321 17.5 383.421 19.35H376.621C377.121 17.25 378.371 16.1 380.221 16.1ZM409.598 10.4C409.248 10.2 408.448 10 407.448 10C405.198 10 403.448 11 402.348 12.5V10.5H394.498V33H402.348V19.8C402.748 18.2 404.198 17.25 406.348 17.25C407.598 17.25 408.648 17.45 409.598 17.95V10.4ZM445.57 21.75C445.57 14.8 440.92 10 434.07 10C427.27 10 422.57 14.8 422.57 21.75C422.57 28.7 427.27 33.5 434.07 33.5C440.92 33.5 445.57 28.7 445.57 21.75ZM437.87 21.75C437.87 24.85 436.52 27 434.07 27C431.67 27 430.32 24.85 430.32 21.75C430.32 18.65 431.67 16.45 434.07 16.45C436.52 16.45 437.87 18.65 437.87 21.75ZM449.123 33H456.973V19.4C457.373 17.85 458.673 16.95 460.223 16.95C462.223 16.95 463.173 18.3 463.173 20.15V33H470.973V18.25C470.973 13.25 468.023 10 463.023 10C460.423 10 458.223 11.05 456.973 12.45V10.5H449.123V33ZM13.2 115.95L24.8 85.5H17L12.8 98.3L8.5 85.5H0.35L8.75 107.45L5.45 115.95H13.2ZM48.5699 96.75C48.5699 89.8 43.9199 85 37.0699 85C30.2699 85 25.5699 89.8 25.5699 96.75C25.5699 103.7 30.2699 108.5 37.0699 108.5C43.9199 108.5 48.5699 103.7 48.5699 96.75ZM40.8699 96.75C40.8699 99.85 39.5199 102 37.0699 102C34.6699 102 33.3199 99.85 33.3199 96.75C33.3199 93.65 34.6699 91.45 37.0699 91.45C39.5199 91.45 40.8699 93.65 40.8699 96.75ZM73.7734 85.5H65.9234V99.15C65.5234 100.7 64.1734 101.65 62.7234 101.65C60.7234 101.65 59.8234 100.3 59.8234 98.4V85.5H52.0234V100.25C52.0234 105.25 54.9734 108.5 59.9234 108.5C62.4734 108.5 64.7234 107.45 65.9234 106.05V108H73.7734V85.5ZM93.5535 85.4C93.2035 85.2 92.4035 85 91.4035 85C89.1535 85 87.4035 86 86.3035 87.5V85.5H78.4535V108H86.3035V94.8C86.7035 93.2 88.1535 92.25 90.3035 92.25C91.5535 92.25 92.6035 92.45 93.5535 92.95V85.4ZM107.725 108H115.575V94.4C115.975 92.85 117.275 91.95 118.825 91.95C120.825 91.95 121.775 93.3 121.775 95.15V108H129.575V93.25C129.575 88.25 126.625 85 121.625 85C119.025 85 116.825 86.05 115.575 87.45V85.5H107.725V108ZM147.703 100.15C147.253 101.7 146.003 102.4 144.403 102.4C142.153 102.4 140.753 100.95 140.503 98.25H155.053V96.3C155.053 89.6 151.153 85 144.253 85C137.753 85 132.953 89.8 132.953 96.75C132.953 103.75 137.503 108.5 144.403 108.5C150.253 108.5 154.153 105.35 154.953 100.15H147.703ZM144.253 91.1C146.203 91.1 147.353 92.5 147.453 94.35H140.653C141.153 92.25 142.403 91.1 144.253 91.1ZM179.798 85.5H171.698L168.148 90.9L164.648 85.5H156.198L163.698 96.55L155.848 108H163.948L167.798 102.15L171.648 108H180.148L172.248 96.5L179.798 85.5ZM184.605 100.25C184.605 105.95 187.605 108.45 192.905 108.45C194.655 108.45 196.355 108.15 197.255 107.75V101.1C196.555 101.4 195.605 101.6 194.755 101.6C193.205 101.6 192.355 100.85 192.355 99.1V91.6H197.055V85.5H192.355V79.3H184.605V85.5H181.305V91.6H184.605V100.25ZM219.735 106.2C220.785 107.4 222.985 108.5 225.285 108.5C231.785 108.5 235.335 103.15 235.335 96.75C235.335 90.3 231.785 85 225.285 85C222.985 85 220.785 86.1 219.735 87.3V85.5H211.885V115.95H219.735V106.2ZM219.735 93.75C220.335 92.55 221.635 91.65 223.185 91.65C225.885 91.65 227.485 93.85 227.485 96.75C227.485 99.65 225.885 101.8 223.185 101.8C221.685 101.8 220.335 100.95 219.735 99.7V93.75ZM253.95 85.4C253.6 85.2 252.8 85 251.8 85C249.55 85 247.8 86 246.7 87.5V85.5H238.85V108H246.7V94.8C247.1 93.2 248.55 92.25 250.7 92.25C251.95 92.25 253 92.45 253.95 92.95V85.4ZM279.119 96.75C279.119 89.8 274.469 85 267.619 85C260.819 85 256.119 89.8 256.119 96.75C256.119 103.7 260.819 108.5 267.619 108.5C274.469 108.5 279.119 103.7 279.119 96.75ZM271.419 96.75C271.419 99.85 270.069 102 267.619 102C265.219 102 263.869 99.85 263.869 96.75C263.869 93.65 265.219 91.45 267.619 91.45C270.069 91.45 271.419 93.65 271.419 96.75ZM297.365 108H305.215V75.5H297.365V87.3C296.315 86.1 294.115 85 291.815 85C285.315 85 281.765 90.25 281.765 96.75C281.765 103.25 285.315 108.5 291.815 108.5C294.115 108.5 296.315 107.4 297.365 106.2V108ZM297.365 99.7C296.765 100.95 295.465 101.8 293.915 101.8C291.215 101.8 289.615 99.65 289.615 96.75C289.615 93.85 291.215 91.65 293.915 91.65C295.415 91.65 296.765 92.55 297.365 93.75V99.7ZM331.58 85.5H323.73V99.15C323.33 100.7 321.98 101.65 320.53 101.65C318.53 101.65 317.63 100.3 317.63 98.4V85.5H309.83V100.25C309.83 105.25 312.78 108.5 317.73 108.5C320.28 108.5 322.53 107.45 323.73 106.05V108H331.58V85.5ZM335.06 96.75C335.06 103.7 339.66 108.5 346.41 108.5C352.46 108.5 356.21 104.85 356.86 99.65H349.26C349.06 101 348.01 101.95 346.41 101.95C344.21 101.95 342.81 99.95 342.81 96.75C342.81 93.55 344.21 91.5 346.41 91.5C348.01 91.5 349.06 92.5 349.26 93.85H356.86C356.21 88.6 352.46 85 346.41 85C339.66 85 335.06 89.8 335.06 96.75ZM362.043 100.25C362.043 105.95 365.043 108.45 370.343 108.45C372.093 108.45 373.793 108.15 374.693 107.75V101.1C373.993 101.4 373.043 101.6 372.193 101.6C370.643 101.6 369.793 100.85 369.793 99.1V91.6H374.493V85.5H369.793V79.3H362.043V85.5H358.743V91.6H362.043V100.25ZM377.761 103.65C377.761 106.3 379.811 108.35 382.361 108.35C384.961 108.35 387.011 106.3 387.011 103.65C387.011 101 384.961 99 382.361 99C379.811 99 377.761 101 377.761 103.65Z" fill="#0A0A14"/>
</svg>
